<svg xmlns="http://www.w3.org/2000/svg" xmlns:xlink="http://www.w3.org/1999/xlink" width="800px" height="600px" viewBox="0 0 800 600" version="1.1">
  <g xmlns="http://www.w3.org/2000/svg" transform="translate(400.000000, 0.000000)">
    <g id="Illustration/img_get_project_done"/>
    <g id="Group" transform="translate(40.000000, 44.000000)">
        <rect id="Rectangle" stroke="#3D42EC" stroke-width="3" x="1.5" y="6.5" width="78" height="69" rx="5"/>
        <rect id="Rectangle-Copy-2" fill="#67DDD1" x="10" y="17" width="61" height="49" rx="3"/>
        <rect id="Rectangle" fill="#FFFFFF" fill-rule="nonzero" x="32" y="50" width="18" height="17"/>
        <path d="M10,33.7726228 L71,33.7726228" id="Path-3" stroke="#3D42EC" stroke-width="3" stroke-linejoin="round" fill-rule="nonzero"/>
        <path d="M5.13518582,41.3648142 L54.1351858,41.3648142" id="Path-3-Copy-2" stroke="#3D42EC" stroke-width="3" stroke-linejoin="round" fill-rule="nonzero" transform="translate(30.000000, 41.864814) rotate(90.000000) translate(-30.000000, -41.864814) "/>
        <path d="M26.1351858,41.3648142 L75.1351858,41.3648142" id="Path-3-Copy-3" stroke="#3D42EC" stroke-width="3" stroke-linejoin="round" fill-rule="nonzero" transform="translate(51.000000, 41.864814) rotate(90.000000) translate(-51.000000, -41.864814) "/>
        <path d="M10,49.7726228 L71,49.7726228" id="Path-3-Copy" stroke="#3D42EC" stroke-width="3" stroke-linejoin="round" fill-rule="nonzero"/>
        <polyline id="Path-4" stroke="#3D42EC" stroke-width="3" stroke-linecap="round" stroke-linejoin="round" fill-rule="nonzero" points="35 55.5 40 62 53.5 46.0363636"/>
        <path d="M50.4854649,13 C54.1154231,10.7682222 55.6711194,1.28316657 51.5225958,0.167277676 C47.3740721,-0.948611222 46.3369412,3.78594596 47.3740721,6.44016741" id="Path-5-Copy" stroke="#3D42EC" stroke-width="3.30000007" stroke-linecap="round" stroke-linejoin="round" fill-rule="nonzero"/>
        <path d="M30.4854649,13 C34.1154231,10.7682222 35.6711194,1.28316657 31.5225958,0.167277676 C27.3740721,-0.948611222 26.3369412,3.78594596 27.3740721,6.44016741" id="Path-5-Copy-2" stroke="#3D42EC" stroke-width="3.30000007" stroke-linecap="round" stroke-linejoin="round" fill-rule="nonzero"/>
    </g>
  </g>
</svg>